<svg width="512" height="512" viewBox="0 0 512 512" fill="none" xmlns="http://www.w3.org/2000/svg">
<g filter="url(#filter0_d_749_17)">
<rect x="31" y="31" width="450" height="450" rx="70" fill="white"/>
</g>
<circle cx="297.74" cy="208.233" r="115.765" stroke="url(#paint0_linear_749_17)" stroke-width="3"/>
<circle cx="314.61" cy="232.332" r="115.765" transform="rotate(27.8041 314.61 232.332)" stroke="url(#paint1_linear_749_17)" stroke-width="3"/>
<circle cx="318.29" cy="261.515" r="115.765" transform="rotate(55.6082 318.29 261.515)" stroke="url(#paint2_linear_749_17)" stroke-width="3"/>
<circle cx="307.931" cy="289.045" r="115.765" transform="rotate(83.4123 307.931 289.045)" stroke="url(#paint3_linear_749_17)" stroke-width="3"/>
<circle cx="285.93" cy="308.565" r="115.765" transform="rotate(111.216 285.93 308.565)" stroke="url(#paint4_linear_749_17)" stroke-width="3"/>
<circle cx="257.361" cy="315.572" r="115.765" transform="rotate(139.021 257.361 315.572)" stroke="url(#paint5_linear_749_17)" stroke-width="3"/>
<circle cx="228.824" cy="308.441" r="115.765" transform="rotate(166.825 228.824 308.441)" stroke="url(#paint6_linear_749_17)" stroke-width="3"/>
<circle cx="206.908" cy="288.822" r="115.765" transform="rotate(-165.371 206.908 288.822)" stroke="url(#paint7_linear_749_17)" stroke-width="3"/>
<circle cx="196.671" cy="261.247" r="115.765" transform="rotate(-137.567 196.671 261.247)" stroke="url(#paint8_linear_749_17)" stroke-width="3"/>
<circle cx="200.482" cy="232.08" r="115.765" transform="rotate(-109.763 200.482 232.08)" stroke="url(#paint9_linear_749_17)" stroke-width="3"/>
<circle cx="217.456" cy="208.056" r="115.765" transform="rotate(-81.9589 217.456 208.056)" stroke="url(#paint10_linear_749_17)" stroke-width="3"/>
<circle cx="243.675" cy="194.725" r="115.765" transform="rotate(-54.1548 243.675 194.725)" stroke="url(#paint11_linear_749_17)" stroke-width="3"/>
<circle cx="273.085" cy="195.162" r="115.765" transform="rotate(-26.3507 273.085 195.162)" stroke="url(#paint12_linear_749_17)" stroke-width="3"/>
<defs>
<filter id="filter0_d_749_17" x="23" y="23" width="474" height="474" filterUnits="userSpaceOnUse" color-interpolation-filters="sRGB">
<feFlood flood-opacity="0" result="BackgroundImageFix"/>
<feColorMatrix in="SourceAlpha" type="matrix" values="0 0 0 0 0 0 0 0 0 0 0 0 0 0 0 0 0 0 127 0" result="hardAlpha"/>
<feOffset dx="4" dy="4"/>
<feGaussianBlur stdDeviation="6"/>
<feComposite in2="hardAlpha" operator="out"/>
<feColorMatrix type="matrix" values="0 0 0 0 0 0 0 0 0 0 0 0 0 0 0 0 0 0 0.25 0"/>
<feBlend mode="normal" in2="BackgroundImageFix" result="effect1_dropShadow_749_17"/>
<feBlend mode="normal" in="SourceGraphic" in2="effect1_dropShadow_749_17" result="shape"/>
</filter>
<linearGradient id="paint0_linear_749_17" x1="297.74" y1="90.9678" x2="297.74" y2="325.497" gradientUnits="userSpaceOnUse">
<stop stop-color="#1F70EA"/>
<stop offset="1" stop-color="#25F5C4"/>
</linearGradient>
<linearGradient id="paint1_linear_749_17" x1="314.61" y1="115.067" x2="314.61" y2="349.596" gradientUnits="userSpaceOnUse">
<stop stop-color="#1F70EA"/>
<stop offset="1" stop-color="#25F5C4"/>
</linearGradient>
<linearGradient id="paint2_linear_749_17" x1="318.29" y1="144.25" x2="318.29" y2="378.78" gradientUnits="userSpaceOnUse">
<stop stop-color="#1F70EA"/>
<stop offset="1" stop-color="#25F5C4"/>
</linearGradient>
<linearGradient id="paint3_linear_749_17" x1="307.931" y1="171.78" x2="307.931" y2="406.31" gradientUnits="userSpaceOnUse">
<stop stop-color="#1F70EA"/>
<stop offset="1" stop-color="#25F5C4"/>
</linearGradient>
<linearGradient id="paint4_linear_749_17" x1="285.93" y1="191.3" x2="285.93" y2="425.83" gradientUnits="userSpaceOnUse">
<stop stop-color="#1F70EA"/>
<stop offset="1" stop-color="#25F5C4"/>
</linearGradient>
<linearGradient id="paint5_linear_749_17" x1="257.361" y1="198.307" x2="257.361" y2="432.836" gradientUnits="userSpaceOnUse">
<stop stop-color="#1F70EA"/>
<stop offset="1" stop-color="#25F5C4"/>
</linearGradient>
<linearGradient id="paint6_linear_749_17" x1="228.824" y1="191.176" x2="228.824" y2="425.706" gradientUnits="userSpaceOnUse">
<stop stop-color="#1F70EA"/>
<stop offset="1" stop-color="#25F5C4"/>
</linearGradient>
<linearGradient id="paint7_linear_749_17" x1="206.908" y1="171.557" x2="206.908" y2="406.087" gradientUnits="userSpaceOnUse">
<stop stop-color="#1F70EA"/>
<stop offset="1" stop-color="#25F5C4"/>
</linearGradient>
<linearGradient id="paint8_linear_749_17" x1="196.671" y1="143.982" x2="196.671" y2="378.512" gradientUnits="userSpaceOnUse">
<stop stop-color="#1F70EA"/>
<stop offset="1" stop-color="#25F5C4"/>
</linearGradient>
<linearGradient id="paint9_linear_749_17" x1="200.482" y1="114.815" x2="200.482" y2="349.345" gradientUnits="userSpaceOnUse">
<stop stop-color="#1F70EA"/>
<stop offset="1" stop-color="#25F5C4"/>
</linearGradient>
<linearGradient id="paint10_linear_749_17" x1="217.456" y1="90.7914" x2="217.456" y2="325.321" gradientUnits="userSpaceOnUse">
<stop stop-color="#1F70EA"/>
<stop offset="1" stop-color="#25F5C4"/>
</linearGradient>
<linearGradient id="paint11_linear_749_17" x1="243.675" y1="77.4604" x2="243.675" y2="311.99" gradientUnits="userSpaceOnUse">
<stop stop-color="#1F70EA"/>
<stop offset="1" stop-color="#25F5C4"/>
</linearGradient>
<linearGradient id="paint12_linear_749_17" x1="273.085" y1="77.8976" x2="273.085" y2="312.427" gradientUnits="userSpaceOnUse">
<stop stop-color="#1F70EA"/>
<stop offset="1" stop-color="#25F5C4"/>
</linearGradient>
</defs>
</svg>
